<?xml version="1.0" encoding="UTF-8"?>
<svg xmlns="http://www.w3.org/2000/svg" xmlns:xlink="http://www.w3.org/1999/xlink" width="64px" height="64px" viewBox="0 0 64 64" version="1.1">
<g id="surface1">
<path style=" stroke:none;fill-rule:nonzero;fill:rgb(80%,0%,0%);fill-opacity:1;" d="M 25.867188 6.292969 C 25.433594 7.046875 25.070312 7.683594 25.0625 7.703125 C 25.046875 7.746094 25.265625 7.746094 29.226562 7.734375 C 31.53125 7.726562 33.421875 7.710938 33.425781 7.703125 C 33.449219 7.683594 35.023438 4.949219 35.023438 4.933594 C 35.023438 4.929688 33.140625 4.925781 30.84375 4.925781 L 26.65625 4.925781 Z M 26.140625 23.761719 C 20.441406 33.636719 15.773438 41.726562 15.773438 41.734375 C 15.773438 41.742188 17.65625 41.75 19.957031 41.75 L 24.136719 41.746094 L 30.300781 31.070312 C 33.691406 25.199219 36.480469 20.371094 36.5 20.347656 C 36.535156 20.304688 37.171875 21.402344 44.574219 34.230469 C 48.996094 41.890625 52.625 48.171875 52.636719 48.191406 C 52.65625 48.214844 53.203125 47.296875 54.757812 44.613281 C 56.667969 41.316406 56.851562 40.996094 56.824219 40.945312 C 56.804688 40.914062 53.046875 34.394531 48.460938 26.460938 C 43.882812 18.527344 39.324219 10.636719 38.335938 8.917969 C 37.347656 7.203125 36.53125 5.800781 36.523438 5.800781 C 36.515625 5.800781 31.84375 13.882812 26.140625 23.761719 Z M 31.769531 10.335938 C 31.765625 10.34375 29.929688 10.351562 27.691406 10.351562 C 25.449219 10.355469 23.59375 10.363281 23.5625 10.371094 C 23.523438 10.378906 23.335938 10.675781 22.785156 11.628906 C 22.386719 12.320312 22.042969 12.921875 22.015625 12.96875 L 21.96875 13.054688 L 26.167969 13.039062 C 28.476562 13.027344 30.363281 13.015625 30.363281 13.015625 C 30.386719 12.992188 31.894531 10.363281 31.890625 10.355469 C 31.878906 10.34375 31.78125 10.328125 31.769531 10.335938 Z M 31.769531 10.335938 "/>
<path style=" stroke:none;fill-rule:nonzero;fill:rgb(80%,0%,0%);fill-opacity:1;" d="M 21.34375 15.675781 L 20.445312 15.6875 L 12.140625 30.074219 C 7.574219 37.988281 3.023438 45.867188 2.03125 47.585938 L 0.226562 50.710938 L 10.597656 50.71875 C 16.300781 50.722656 25.644531 50.722656 31.359375 50.71875 L 41.746094 50.710938 L 37.566406 43.476562 L 25.179688 43.476562 C 14.488281 43.476562 12.796875 43.46875 12.808594 43.441406 C 12.816406 43.421875 16.417969 37.175781 20.8125 29.566406 C 25.203125 21.953125 28.808594 15.710938 28.816406 15.6875 C 28.828125 15.652344 28.53125 15.648438 25.535156 15.65625 C 23.71875 15.660156 21.835938 15.667969 21.34375 15.675781 Z M 21.34375 15.675781 "/>
<path style=" stroke:none;fill-rule:nonzero;fill:rgb(80%,0%,0%);fill-opacity:1;" d="M 34.433594 27.339844 C 33.296875 29.316406 32.359375 30.945312 32.355469 30.960938 C 32.351562 30.980469 35.132812 35.816406 38.539062 41.710938 C 41.941406 47.609375 44.726562 52.4375 44.726562 52.441406 C 44.726562 52.449219 37.578125 52.453125 28.839844 52.453125 L 12.953125 52.460938 L 17.140625 59.6875 L 37.21875 59.695312 L 57.296875 59.699219 L 57.042969 59.257812 C 56.898438 59.011719 52.230469 50.921875 46.664062 41.28125 C 41.097656 31.640625 36.535156 23.75 36.523438 23.75 C 36.515625 23.75 35.574219 25.363281 34.433594 27.339844 Z M 57.738281 44.609375 C 57.410156 45.175781 56.925781 46.007812 56.664062 46.460938 C 56.398438 46.914062 55.730469 48.070312 55.175781 49.023438 C 54.621094 49.980469 54.164062 50.78125 54.164062 50.800781 C 54.164062 50.835938 55.75 53.609375 55.761719 53.59375 C 55.777344 53.578125 59.929688 46.414062 59.941406 46.386719 C 59.949219 46.363281 58.414062 43.664062 58.351562 43.59375 C 58.34375 43.585938 58.066406 44.039062 57.738281 44.609375 Z M 59.34375 52.5625 C 58.191406 54.550781 57.253906 56.183594 57.257812 56.195312 C 57.460938 56.578125 58.761719 58.796875 58.777344 58.78125 C 58.808594 58.746094 62.949219 51.59375 62.949219 51.570312 C 62.949219 51.546875 61.484375 49.003906 61.453125 48.96875 C 61.445312 48.960938 60.492188 50.578125 59.34375 52.5625 Z M 0.503906 52.503906 C 0.523438 52.539062 1.460938 54.15625 2.585938 56.101562 C 3.710938 58.046875 4.644531 59.652344 4.664062 59.671875 C 4.683594 59.691406 5.015625 59.699219 6.234375 59.695312 L 7.773438 59.6875 L 5.683594 56.070312 L 3.585938 52.449219 L 0.46875 52.449219 Z M 6.628906 52.46875 C 6.636719 52.484375 7.578125 54.113281 8.726562 56.09375 L 10.8125 59.699219 L 12.457031 59.699219 C 13.359375 59.699219 14.101562 59.691406 14.101562 59.683594 C 14.101562 59.675781 13.160156 58.046875 12.007812 56.058594 L 9.917969 52.449219 L 8.269531 52.449219 C 7.363281 52.449219 6.625 52.460938 6.628906 52.46875 Z M 6.628906 52.46875 "/>
</g>
</svg>
